<svg xmlns="http://www.w3.org/2000/svg" width="1024" height="1024">
  <path fill="#fff" d="M160 512a352.003 352.003 0 0 1 528.001-304.894 32 32 0 0 0 43.529-11.818c4.224-7.318 5.385-16.01 3.226-24.18s-7.462-15.153-14.754-19.427a415.996 415.996 0 0 0-502.146 66.101 416.002 416.002 0 0 0 134.92 678.486 415.998 415.998 0 0 0 575.226-384.269 32.005 32.005 0 0 0-32-32 32.005 32.005 0 0 0-32 32 352.002 352.002 0 0 1-103.1 248.905c-66.01 66.014-155.546 103.095-248.9 103.095s-182.888-37.082-248.901-103.095a352.004 352.004 0 0 1-103.098-248.905z"/>
  <path fill="#fff" d="M982.656 214.655a32.105 32.105 0 0 0 6.946-10.394 32.074 32.074 0 0 0 0-24.523 32.109 32.109 0 0 0-6.946-10.395 32.044 32.044 0 0 0-45.312 0L512 594.752 342.655 425.343a32.038 32.038 0 0 0-45.312 0 32.042 32.042 0 0 0 0 45.313l192.001 192a32.004 32.004 0 0 0 22.656 9.4c4.207 0 8.375-.832 12.262-2.445s7.42-3.977 10.394-6.955l448-448.001z"/>
</svg>
